# Blender v2.83.8 OBJ File: 'CollisionMeshRacquetBasic.blend'
# www.blender.org
mtllib CollisionMeshRacquetBasic.mtl
o Cylinder
v 0.000000 0.174625 -0.000675
v 0.000000 0.174625 0.000675
v 0.026015 0.171270 -0.000675
v 0.026015 0.171270 0.000675
v 0.051031 0.161332 -0.000675
v 0.051031 0.161332 0.000675
v 0.074085 0.145195 -0.000675
v 0.074085 0.145195 0.000675
v 0.094293 0.123479 -0.000675
v 0.094293 0.123479 0.000675
v 0.110876 0.097016 -0.000675
v 0.110876 0.097016 0.000675
v 0.123199 0.066826 -0.000675
v 0.123199 0.066826 0.000675
v 0.130788 0.034068 -0.000675
v 0.130788 0.034068 0.000675
v 0.133350 0.000000 -0.000675
v 0.133350 0.000000 0.000675
v 0.130788 -0.034068 -0.000675
v 0.130788 -0.034068 0.000675
v 0.123199 -0.066826 -0.000675
v 0.123199 -0.066826 0.000675
v 0.110876 -0.097016 -0.000675
v 0.110876 -0.097016 0.000675
v 0.094293 -0.123479 -0.000675
v 0.094293 -0.123479 0.000675
v 0.074085 -0.145195 -0.000675
v 0.074085 -0.145195 0.000675
v 0.051031 -0.161332 -0.000675
v 0.051031 -0.161332 0.000675
v 0.026015 -0.171270 -0.000675
v 0.026015 -0.171270 0.000675
v -0.000000 -0.174625 -0.000675
v -0.000000 -0.174625 0.000675
v -0.026015 -0.171270 -0.000675
v -0.026015 -0.171270 0.000675
v -0.051031 -0.161332 -0.000675
v -0.051031 -0.161332 0.000675
v -0.074085 -0.145195 -0.000675
v -0.074085 -0.145195 0.000675
v -0.094293 -0.123478 -0.000675
v -0.094293 -0.123478 0.000675
v -0.110877 -0.097016 -0.000675
v -0.110877 -0.097016 0.000675
v -0.123199 -0.066826 -0.000675
v -0.123199 -0.066826 0.000675
v -0.130788 -0.034067 -0.000675
v -0.130788 -0.034067 0.000675
v -0.133350 0.000000 -0.000675
v -0.133350 0.000000 0.000675
v -0.130788 0.034068 -0.000675
v -0.130788 0.034068 0.000675
v -0.123199 0.066826 -0.000675
v -0.123199 0.066826 0.000675
v -0.110876 0.097017 -0.000675
v -0.110876 0.097017 0.000675
v -0.094293 0.123479 -0.000675
v -0.094293 0.123479 0.000675
v -0.074085 0.145196 -0.000675
v -0.074085 0.145196 0.000675
v -0.051031 0.161333 -0.000675
v -0.051031 0.161333 0.000675
v -0.026015 0.171270 -0.000675
v -0.026015 0.171270 0.000675
vt 1.000000 0.500000
vt 1.000000 1.000000
vt 0.968750 1.000000
vt 0.968750 0.500000
vt 0.937500 1.000000
vt 0.937500 0.500000
vt 0.906250 1.000000
vt 0.906250 0.500000
vt 0.875000 1.000000
vt 0.875000 0.500000
vt 0.843750 1.000000
vt 0.843750 0.500000
vt 0.812500 1.000000
vt 0.812500 0.500000
vt 0.781250 1.000000
vt 0.781250 0.500000
vt 0.750000 1.000000
vt 0.750000 0.500000
vt 0.718750 1.000000
vt 0.718750 0.500000
vt 0.687500 1.000000
vt 0.687500 0.500000
vt 0.656250 1.000000
vt 0.656250 0.500000
vt 0.625000 1.000000
vt 0.625000 0.500000
vt 0.593750 1.000000
vt 0.593750 0.500000
vt 0.562500 1.000000
vt 0.562500 0.500000
vt 0.531250 1.000000
vt 0.531250 0.500000
vt 0.500000 1.000000
vt 0.500000 0.500000
vt 0.468750 1.000000
vt 0.468750 0.500000
vt 0.437500 1.000000
vt 0.437500 0.500000
vt 0.406250 1.000000
vt 0.406250 0.500000
vt 0.375000 1.000000
vt 0.375000 0.500000
vt 0.343750 1.000000
vt 0.343750 0.500000
vt 0.312500 1.000000
vt 0.312500 0.500000
vt 0.281250 1.000000
vt 0.281250 0.500000
vt 0.250000 1.000000
vt 0.250000 0.500000
vt 0.218750 1.000000
vt 0.218750 0.500000
vt 0.187500 1.000000
vt 0.187500 0.500000
vt 0.156250 1.000000
vt 0.156250 0.500000
vt 0.125000 1.000000
vt 0.125000 0.500000
vt 0.093750 1.000000
vt 0.093750 0.500000
vt 0.062500 1.000000
vt 0.062500 0.500000
vt 0.296822 0.485388
vt 0.250000 0.490000
vt 0.203179 0.485389
vt 0.158156 0.471731
vt 0.116663 0.449553
vt 0.080295 0.419706
vt 0.050447 0.383337
vt 0.028269 0.341844
vt 0.014612 0.296822
vt 0.010000 0.250000
vt 0.014611 0.203179
vt 0.028269 0.158156
vt 0.050447 0.116663
vt 0.080294 0.080294
vt 0.116663 0.050447
vt 0.158156 0.028269
vt 0.203178 0.014612
vt 0.250000 0.010000
vt 0.296822 0.014612
vt 0.341844 0.028269
vt 0.383337 0.050447
vt 0.419706 0.080294
vt 0.449553 0.116663
vt 0.471731 0.158156
vt 0.485388 0.203178
vt 0.490000 0.250000
vt 0.485388 0.296822
vt 0.471731 0.341844
vt 0.449553 0.383337
vt 0.419706 0.419706
vt 0.383337 0.449553
vt 0.341844 0.471731
vt 0.031250 1.000000
vt 0.031250 0.500000
vt 0.000000 1.000000
vt 0.000000 0.500000
vt 0.750000 0.490000
vt 0.796822 0.485388
vt 0.841844 0.471731
vt 0.883337 0.449553
vt 0.919706 0.419706
vt 0.949553 0.383337
vt 0.971731 0.341844
vt 0.985388 0.296822
vt 0.990000 0.250000
vt 0.985388 0.203178
vt 0.971731 0.158156
vt 0.949553 0.116663
vt 0.919706 0.080294
vt 0.883337 0.050447
vt 0.841844 0.028269
vt 0.796822 0.014612
vt 0.750000 0.010000
vt 0.703178 0.014612
vt 0.658156 0.028269
vt 0.616663 0.050447
vt 0.580294 0.080294
vt 0.550447 0.116663
vt 0.528269 0.158156
vt 0.514611 0.203179
vt 0.510000 0.250000
vt 0.514612 0.296822
vt 0.528269 0.341844
vt 0.550447 0.383337
vt 0.580295 0.419706
vt 0.616663 0.449553
vt 0.658156 0.471731
vt 0.703179 0.485389
vn 0.1279 0.9918 0.0000
vn 0.3692 0.9294 0.0000
vn 0.5734 0.8192 0.0000
vn 0.7321 0.6812 0.0000
vn 0.8474 0.5310 0.0000
vn 0.9258 0.3779 0.0000
vn 0.9742 0.2257 0.0000
vn 0.9972 0.0750 0.0000
vn 0.9972 -0.0750 0.0000
vn 0.9742 -0.2257 0.0000
vn 0.9258 -0.3779 0.0000
vn 0.8474 -0.5310 0.0000
vn 0.7321 -0.6812 0.0000
vn 0.5734 -0.8192 0.0000
vn 0.3692 -0.9294 0.0000
vn 0.1279 -0.9918 0.0000
vn -0.1279 -0.9918 0.0000
vn -0.3692 -0.9294 0.0000
vn -0.5734 -0.8192 0.0000
vn -0.7321 -0.6812 0.0000
vn -0.8474 -0.5310 0.0000
vn -0.9258 -0.3779 0.0000
vn -0.9742 -0.2257 0.0000
vn -0.9972 -0.0750 0.0000
vn -0.9972 0.0750 0.0000
vn -0.9742 0.2257 0.0000
vn -0.9258 0.3779 0.0000
vn -0.8473 0.5310 0.0000
vn -0.7321 0.6812 0.0000
vn -0.5734 0.8193 0.0000
vn 0.0000 0.0000 1.0000
vn -0.3692 0.9294 0.0000
vn -0.1279 0.9918 0.0000
vn -0.0000 0.0000 -1.0000
usemtl None
s off
f 1/1/1 2/2/1 4/3/1 3/4/1
f 3/4/2 4/3/2 6/5/2 5/6/2
f 5/6/3 6/5/3 8/7/3 7/8/3
f 7/8/4 8/7/4 10/9/4 9/10/4
f 9/10/5 10/9/5 12/11/5 11/12/5
f 11/12/6 12/11/6 14/13/6 13/14/6
f 13/14/7 14/13/7 16/15/7 15/16/7
f 15/16/8 16/15/8 18/17/8 17/18/8
f 17/18/9 18/17/9 20/19/9 19/20/9
f 19/20/10 20/19/10 22/21/10 21/22/10
f 21/22/11 22/21/11 24/23/11 23/24/11
f 23/24/12 24/23/12 26/25/12 25/26/12
f 25/26/13 26/25/13 28/27/13 27/28/13
f 27/28/14 28/27/14 30/29/14 29/30/14
f 29/30/15 30/29/15 32/31/15 31/32/15
f 31/32/16 32/31/16 34/33/16 33/34/16
f 33/34/17 34/33/17 36/35/17 35/36/17
f 35/36/18 36/35/18 38/37/18 37/38/18
f 37/38/19 38/37/19 40/39/19 39/40/19
f 39/40/20 40/39/20 42/41/20 41/42/20
f 41/42/21 42/41/21 44/43/21 43/44/21
f 43/44/22 44/43/22 46/45/22 45/46/22
f 45/46/23 46/45/23 48/47/23 47/48/23
f 47/48/24 48/47/24 50/49/24 49/50/24
f 49/50/25 50/49/25 52/51/25 51/52/25
f 51/52/26 52/51/26 54/53/26 53/54/26
f 53/54/27 54/53/27 56/55/27 55/56/27
f 55/56/28 56/55/28 58/57/28 57/58/28
f 57/58/29 58/57/29 60/59/29 59/60/29
f 59/60/30 60/59/30 62/61/30 61/62/30
f 4/63/31 2/64/31 64/65/31 62/66/31 60/67/31 58/68/31 56/69/31 54/70/31 52/71/31 50/72/31 48/73/31 46/74/31 44/75/31 42/76/31 40/77/31 38/78/31 36/79/31 34/80/31 32/81/31 30/82/31 28/83/31 26/84/31 24/85/31 22/86/31 20/87/31 18/88/31 16/89/31 14/90/31 12/91/31 10/92/31 8/93/31 6/94/31
f 61/62/32 62/61/32 64/95/32 63/96/32
f 63/96/33 64/95/33 2/97/33 1/98/33
f 1/99/34 3/100/34 5/101/34 7/102/34 9/103/34 11/104/34 13/105/34 15/106/34 17/107/34 19/108/34 21/109/34 23/110/34 25/111/34 27/112/34 29/113/34 31/114/34 33/115/34 35/116/34 37/117/34 39/118/34 41/119/34 43/120/34 45/121/34 47/122/34 49/123/34 51/124/34 53/125/34 55/126/34 57/127/34 59/128/34 61/129/34 63/130/34
o Cube_Cube.001
v -0.019050 -0.511175 -0.012700
v -0.019050 -0.511175 0.012700
v -0.019050 -0.174625 -0.012700
v -0.019050 -0.174625 0.012700
v 0.019050 -0.511175 -0.012700
v 0.019050 -0.511175 0.012700
v 0.019050 -0.174625 -0.012700
v 0.019050 -0.174625 0.012700
v -0.019050 -0.170000 0.000000
v 0.019050 -0.170000 0.000000
vt 0.375000 0.000000
vt 0.625000 0.000000
vt 0.625000 0.250000
vt 0.375000 0.250000
vt 0.625000 0.500000
vt 0.375000 0.500000
vt 0.625000 0.500000
vt 0.625000 0.750000
vt 0.375000 0.750000
vt 0.625000 1.000000
vt 0.375000 1.000000
vt 0.125000 0.500000
vt 0.125000 0.750000
vt 0.875000 0.500000
vt 0.875000 0.750000
vt 0.125000 0.500000
vt 0.375000 0.500000
vt 0.875000 0.500000
vt 0.375000 0.250000
vn -1.0000 0.0000 0.0000
vn 1.0000 0.0000 0.0000
vn 0.0000 -1.0000 0.0000
vn 0.0000 0.0000 -1.0000
vn 0.0000 0.0000 1.0000
vn 0.0000 0.9396 -0.3422
vn 0.0000 0.9396 0.3422
usemtl None
s off
f 65/131/35 66/132/35 68/133/35 67/134/35
f 72/135/36 71/136/36 74/137/36
f 71/136/36 72/135/36 70/138/36 69/139/36
f 69/139/37 70/138/37 66/140/37 65/141/37
f 67/142/38 71/136/38 69/139/38 65/143/38
f 72/135/39 68/144/39 66/145/39 70/138/39
f 71/136/40 67/142/40 73/146/40 74/147/40
f 68/144/41 72/135/41 74/137/41 73/148/41
f 67/134/35 68/133/35 73/149/35
o Plane
v 0.000000 -0.177800 0.009525
v -0.000000 -0.177800 -0.009525
v -0.000000 -0.171450 -0.009525
v 0.000000 -0.171450 0.009525
l 75 76
l 76 77
l 77 78
l 78 75
o BezierCircle
v -0.133350 0.000000 0.000000
v -0.132132 0.023259 0.000000
v -0.128585 0.045569 0.000000
v -0.122868 0.066725 0.000000
v -0.115139 0.086522 0.000000
v -0.105558 0.104756 0.000000
v -0.094285 0.121223 0.000000
v -0.081477 0.135718 0.000000
v -0.067295 0.148036 0.000000
v -0.051897 0.157973 0.000000
v -0.035442 0.165324 0.000000
v -0.018090 0.169884 0.000000
v 0.000000 0.171450 0.000000
v 0.018090 0.169884 0.000000
v 0.035442 0.165324 0.000000
v 0.051897 0.157973 0.000000
v 0.067295 0.148036 0.000000
v 0.081477 0.135718 0.000000
v 0.094285 0.121223 0.000000
v 0.105558 0.104756 0.000000
v 0.115139 0.086522 0.000000
v 0.122868 0.066725 0.000000
v 0.128585 0.045569 0.000000
v 0.132132 0.023259 0.000000
v 0.133350 0.000000 0.000000
v 0.132132 -0.023259 0.000000
v 0.128585 -0.045569 0.000000
v 0.122868 -0.066725 0.000000
v 0.115139 -0.086522 0.000000
v 0.105558 -0.104756 0.000000
v 0.094285 -0.121223 0.000000
v 0.081477 -0.135718 0.000000
v 0.067295 -0.148036 0.000000
v 0.051897 -0.157973 0.000000
v 0.035442 -0.165324 0.000000
v 0.018090 -0.169884 0.000000
v 0.000000 -0.171450 0.000000
v -0.018090 -0.169884 0.000000
v -0.035442 -0.165324 0.000000
v -0.051897 -0.157973 0.000000
v -0.067295 -0.148036 0.000000
v -0.081477 -0.135718 0.000000
v -0.094285 -0.121223 0.000000
v -0.105558 -0.104756 0.000000
v -0.115139 -0.086522 0.000000
v -0.122868 -0.066725 0.000000
v -0.128585 -0.045569 0.000000
v -0.132132 -0.023259 0.000000
l 79 80
l 80 81
l 81 82
l 82 83
l 83 84
l 84 85
l 85 86
l 86 87
l 87 88
l 88 89
l 89 90
l 90 91
l 91 92
l 92 93
l 93 94
l 94 95
l 95 96
l 96 97
l 97 98
l 98 99
l 99 100
l 100 101
l 101 102
l 102 103
l 103 104
l 104 105
l 105 106
l 106 107
l 107 108
l 108 109
l 109 110
l 110 111
l 111 112
l 112 113
l 113 114
l 114 115
l 115 116
l 116 117
l 117 118
l 118 119
l 119 120
l 120 121
l 121 122
l 122 123
l 123 124
l 124 125
l 125 126
l 126 79
