# Blender v2.92.0 OBJ File: ''
# www.blender.org
mtllib Post.mtl
o Post
v 0.000000 0.050800 0.000000
v -0.008585 0.050069 0.000000
v 0.008585 0.050069 0.000000
v -0.016924 0.047898 0.000000
v 0.016924 0.047898 0.000000
v -0.024775 0.044349 0.000000
v 0.024775 0.044349 0.000000
v -0.031914 0.039524 0.000000
v 0.031914 0.039524 0.000000
v -0.038134 0.033562 0.000000
v 0.038134 0.033562 0.000000
v -0.043258 0.026635 0.000000
v 0.043258 0.026635 0.000000
v -0.047137 0.018941 0.000000
v 0.047137 0.018941 0.000000
v -0.049660 0.010703 0.000000
v 0.049660 0.010703 0.000000
v -0.050754 0.002156 0.000000
v 0.050754 0.002156 0.000000
v 0.000000 0.000000 0.000000
v -0.050389 -0.006453 -0.000000
v 0.050389 -0.006453 -0.000000
v -0.048573 -0.014875 -0.000000
v 0.048573 -0.014875 -0.000000
v -0.045361 -0.022870 -0.000000
v 0.045361 -0.022870 -0.000000
v -0.040843 -0.030207 -0.000000
v 0.040843 -0.030207 -0.000000
v -0.035150 -0.036675 -0.000000
v 0.035150 -0.036675 -0.000000
v -0.028447 -0.042088 -0.000000
v 0.028447 -0.042088 -0.000000
v -0.020925 -0.046290 -0.000000
v 0.020925 -0.046290 -0.000000
v -0.012800 -0.049161 -0.000000
v 0.012800 -0.049161 -0.000000
v -0.004308 -0.050617 -0.000000
v 0.004308 -0.050617 -0.000000
v 0.000000 -0.050800 -0.000000
v 0.000000 -0.050800 -0.000000
v 0.000000 0.050800 1.000000
v -0.008585 0.050069 1.000000
v 0.008585 0.050069 1.000000
v -0.016924 0.047898 1.000000
v 0.016924 0.047898 1.000000
v -0.024775 0.044349 1.000000
v 0.024775 0.044349 1.000000
v -0.031914 0.039524 1.000000
v 0.031914 0.039524 1.000000
v -0.038134 0.033562 1.000000
v 0.038134 0.033562 1.000000
v -0.043258 0.026635 1.000000
v 0.043258 0.026635 1.000000
v -0.047137 0.018941 1.000000
v 0.047137 0.018941 1.000000
v -0.049660 0.010702 1.000000
v 0.049660 0.010702 1.000000
v -0.050754 0.002156 1.000000
v 0.050754 0.002156 1.000000
v 0.000000 -0.000000 1.000000
v -0.050389 -0.006453 1.000000
v 0.050389 -0.006453 1.000000
v -0.048573 -0.014875 1.000000
v 0.048573 -0.014875 1.000000
v -0.045361 -0.022870 1.000000
v 0.045361 -0.022870 1.000000
v -0.040843 -0.030207 1.000000
v 0.040843 -0.030207 1.000000
v -0.035150 -0.036675 1.000000
v 0.035150 -0.036675 1.000000
v -0.028447 -0.042088 1.000000
v 0.028447 -0.042088 1.000000
v -0.020925 -0.046290 1.000000
v 0.020925 -0.046290 1.000000
v -0.012800 -0.049161 1.000000
v 0.012800 -0.049161 1.000000
v -0.004308 -0.050617 1.000000
v 0.004308 -0.050617 1.000000
v 0.000000 -0.050800 1.000000
v 0.000000 -0.050800 1.000000
vn -0.0848 0.9964 0.0000
vn 0.0848 0.9964 0.0000
vn 0.0000 0.0000 -1.0000
vn -0.2520 0.9677 0.0000
vn 0.2520 0.9677 0.0000
vn -0.4119 0.9112 0.0000
vn 0.4119 0.9112 0.0000
vn -0.5600 0.8285 0.0000
vn 0.5600 0.8285 0.0000
vn -0.6919 0.7220 0.0000
vn 0.6919 0.7220 0.0000
vn -0.8040 0.5946 0.0000
vn 0.8040 0.5946 0.0000
vn -0.8929 0.4502 0.0000
vn 0.8929 0.4502 0.0000
vn -0.9562 0.2928 0.0000
vn 0.9562 0.2928 0.0000
vn -0.9919 0.1270 0.0000
vn 0.9919 0.1270 0.0000
vn -0.9991 -0.0424 -0.0000
vn 0.9991 -0.0424 -0.0000
vn -0.9776 -0.2107 -0.0000
vn 0.9776 -0.2107 -0.0000
vn -0.9279 -0.3729 -0.0000
vn 0.9279 -0.3729 -0.0000
vn -0.8515 -0.5243 -0.0000
vn 0.8515 -0.5243 -0.0000
vn -0.7507 -0.6607 -0.0000
vn 0.7507 -0.6607 -0.0000
vn -0.6282 -0.7780 -0.0000
vn 0.6282 -0.7780 -0.0000
vn -0.4877 -0.8730 -0.0000
vn 0.4877 -0.8730 -0.0000
vn -0.3331 -0.9429 -0.0000
vn 0.3331 -0.9429 -0.0000
vn -0.1690 -0.9856 -0.0000
vn 0.1690 -0.9856 -0.0000
vn -0.0424 -0.9991 -0.0000
vn 0.0424 -0.9991 -0.0000
vn 0.0000 0.0000 1.0000
usemtl None
s off
f 2//1 41//1 1//1
f 41//2 43//2 1//2
f 43//2 3//2 1//2
f 3//3 20//3 1//3
f 20//3 2//3 1//3
f 4//4 42//4 2//4
f 42//1 41//1 2//1
f 20//3 4//3 2//3
f 43//5 45//5 3//5
f 45//5 5//5 3//5
f 5//3 20//3 3//3
f 6//6 44//6 4//6
f 44//4 42//4 4//4
f 20//3 6//3 4//3
f 45//7 47//7 5//7
f 47//7 7//7 5//7
f 7//3 20//3 5//3
f 8//8 46//8 6//8
f 46//6 44//6 6//6
f 20//3 8//3 6//3
f 47//9 49//9 7//9
f 49//9 9//9 7//9
f 9//3 20//3 7//3
f 10//10 48//10 8//10
f 48//8 46//8 8//8
f 20//3 10//3 8//3
f 49//11 51//11 9//11
f 51//11 11//11 9//11
f 11//3 20//3 9//3
f 12//12 50//12 10//12
f 50//10 48//10 10//10
f 20//3 12//3 10//3
f 51//13 53//13 11//13
f 53//13 13//13 11//13
f 13//3 20//3 11//3
f 14//14 52//14 12//14
f 52//12 50//12 12//12
f 20//3 14//3 12//3
f 53//15 55//15 13//15
f 55//15 15//15 13//15
f 15//3 20//3 13//3
f 16//16 54//16 14//16
f 54//14 52//14 14//14
f 20//3 16//3 14//3
f 55//17 57//17 15//17
f 57//17 17//17 15//17
f 17//3 20//3 15//3
f 18//18 56//18 16//18
f 56//16 54//16 16//16
f 20//3 18//3 16//3
f 57//19 59//19 17//19
f 59//19 19//19 17//19
f 19//3 20//3 17//3
f 21//20 58//20 18//20
f 58//18 56//18 18//18
f 20//3 21//3 18//3
f 59//21 62//21 19//21
f 62//21 22//21 19//21
f 22//3 20//3 19//3
f 39//3 37//3 20//3
f 38//3 39//3 20//3
f 32//3 34//3 20//3
f 34//3 36//3 20//3
f 36//3 38//3 20//3
f 26//3 28//3 20//3
f 28//3 30//3 20//3
f 30//3 32//3 20//3
f 22//3 24//3 20//3
f 24//3 26//3 20//3
f 25//3 23//3 20//3
f 23//3 21//3 20//3
f 31//3 29//3 20//3
f 29//3 27//3 20//3
f 27//3 25//3 20//3
f 37//3 35//3 20//3
f 35//3 33//3 20//3
f 33//3 31//3 20//3
f 23//22 61//22 21//22
f 61//20 58//20 21//20
f 62//23 64//23 22//23
f 64//23 24//23 22//23
f 25//24 63//24 23//24
f 63//22 61//22 23//22
f 64//25 66//25 24//25
f 66//25 26//25 24//25
f 27//26 65//26 25//26
f 65//24 63//24 25//24
f 66//27 68//27 26//27
f 68//27 28//27 26//27
f 29//28 67//28 27//28
f 67//26 65//26 27//26
f 68//29 70//29 28//29
f 70//29 30//29 28//29
f 31//30 69//30 29//30
f 69//28 67//28 29//28
f 70//31 72//31 30//31
f 72//31 32//31 30//31
f 33//32 71//32 31//32
f 71//30 69//30 31//30
f 72//33 74//33 32//33
f 74//33 34//33 32//33
f 35//34 73//34 33//34
f 73//32 71//32 33//32
f 74//35 76//35 34//35
f 76//35 36//35 34//35
f 37//36 75//36 35//36
f 75//34 73//34 35//34
f 76//37 78//37 36//37
f 78//37 38//37 36//37
f 39//38 80//38 37//38
f 80//38 77//38 37//38
f 77//36 75//36 37//36
f 78//39 39//39 38//39
f 78//39 80//39 39//39
f 42//40 60//40 41//40
f 60//40 43//40 41//40
f 44//40 60//40 42//40
f 60//40 45//40 43//40
f 46//40 60//40 44//40
f 60//40 47//40 45//40
f 48//40 60//40 46//40
f 60//40 49//40 47//40
f 50//40 60//40 48//40
f 60//40 51//40 49//40
f 52//40 60//40 50//40
f 60//40 53//40 51//40
f 54//40 60//40 52//40
f 60//40 55//40 53//40
f 56//40 60//40 54//40
f 60//40 57//40 55//40
f 58//40 60//40 56//40
f 60//40 59//40 57//40
f 61//40 60//40 58//40
f 60//40 62//40 59//40
f 80//40 78//40 60//40
f 77//40 80//40 60//40
f 71//40 73//40 60//40
f 73//40 75//40 60//40
f 75//40 77//40 60//40
f 65//40 67//40 60//40
f 67//40 69//40 60//40
f 69//40 71//40 60//40
f 61//40 63//40 60//40
f 63//40 65//40 60//40
f 66//40 64//40 60//40
f 64//40 62//40 60//40
f 72//40 70//40 60//40
f 70//40 68//40 60//40
f 68//40 66//40 60//40
f 78//40 76//40 60//40
f 76//40 74//40 60//40
f 74//40 72//40 60//40
