# Blender v2.83.8 OBJ File: 'TennisNetCollisionMesh.blend'
# www.blender.org
mtllib TennisNetCollisionMesh.mtl
o Cube
v 0.005000 0.035000 0.914400
v 0.005000 0.035000 0.000000
v 0.005000 -0.035000 0.914400
v 0.005000 -0.035000 0.000000
v -0.005000 0.035000 0.914400
v -0.005000 0.035000 0.000000
v -0.005000 -0.035000 0.914400
v -0.005000 -0.035000 0.000000
v -0.005000 4.000000 0.000000
v -0.005000 4.000000 1.066800
v -0.005000 6.000000 0.000000
v -0.005000 6.000000 1.066800
v 0.005000 4.000000 0.000000
v 0.005000 4.000000 1.066800
v 0.005000 6.000000 0.000000
v 0.005000 6.000000 1.066800
v -0.005000 -4.000000 0.000000
v -0.005000 -4.000000 1.066800
v -0.005000 -6.000000 0.000000
v -0.005000 -6.000000 1.066800
v 0.005000 -4.000000 0.000000
v 0.005000 -4.000000 1.066800
v 0.005000 -6.000000 0.000000
v 0.005000 -6.000000 1.066800
v -0.005000 0.035000 0.000000
v -0.005000 0.035000 0.914400
v -0.005000 4.000000 0.000000
v -0.005000 4.000000 1.066800
v 0.005000 0.035000 0.000000
v 0.005000 0.035000 0.914400
v 0.005000 4.000000 0.000000
v 0.005000 4.000000 1.066800
v -0.005000 -0.035000 0.000000
v -0.005000 -0.035000 0.914400
v -0.005000 -4.000000 0.000000
v -0.005000 -4.000000 1.066800
v 0.005000 -0.035000 0.000000
v 0.005000 -0.035000 0.914400
v 0.005000 -4.000000 0.000000
v 0.005000 -4.000000 1.066800
vt 0.625000 0.500000
vt 0.875000 0.500000
vt 0.875000 0.750000
vt 0.625000 0.750000
vt 0.375000 0.750000
vt 0.625000 1.000000
vt 0.375000 1.000000
vt 0.375000 0.000000
vt 0.625000 0.000000
vt 0.625000 0.250000
vt 0.375000 0.250000
vt 0.125000 0.500000
vt 0.375000 0.500000
vt 0.125000 0.750000
vt 0.375000 0.000000
vt 0.625000 0.000000
vt 0.625000 0.250000
vt 0.375000 0.250000
vt 0.625000 0.500000
vt 0.375000 0.500000
vt 0.625000 0.750000
vt 0.375000 0.750000
vt 0.625000 1.000000
vt 0.375000 1.000000
vt 0.125000 0.500000
vt 0.125000 0.750000
vt 0.875000 0.500000
vt 0.875000 0.750000
vt 0.375000 0.000000
vt 0.375000 0.250000
vt 0.625000 0.250000
vt 0.625000 0.000000
vt 0.375000 0.500000
vt 0.625000 0.500000
vt 0.375000 0.750000
vt 0.625000 0.750000
vt 0.375000 1.000000
vt 0.625000 1.000000
vt 0.125000 0.500000
vt 0.125000 0.750000
vt 0.875000 0.750000
vt 0.875000 0.500000
vt 0.375000 0.000000
vt 0.625000 0.000000
vt 0.625000 0.250000
vt 0.375000 0.250000
vt 0.625000 0.500000
vt 0.375000 0.500000
vt 0.625000 0.750000
vt 0.375000 0.750000
vt 0.625000 1.000000
vt 0.375000 1.000000
vt 0.125000 0.500000
vt 0.125000 0.750000
vt 0.875000 0.500000
vt 0.875000 0.750000
vt 0.375000 0.000000
vt 0.375000 0.250000
vt 0.625000 0.250000
vt 0.625000 0.000000
vt 0.375000 0.500000
vt 0.625000 0.500000
vt 0.375000 0.750000
vt 0.625000 0.750000
vt 0.375000 1.000000
vt 0.625000 1.000000
vt 0.125000 0.500000
vt 0.125000 0.750000
vt 0.875000 0.750000
vt 0.875000 0.500000
vn 0.0000 0.0000 1.0000
vn 0.0000 -1.0000 0.0000
vn -1.0000 0.0000 0.0000
vn 0.0000 0.0000 -1.0000
vn 1.0000 0.0000 0.0000
vn 0.0000 1.0000 0.0000
vn 0.0000 -0.0384 0.9993
vn 0.0000 0.0384 0.9993
usemtl Material
s off
f 1/1/1 5/2/1 7/3/1 3/4/1
f 4/5/2 3/4/2 7/6/2 8/7/2
f 8/8/3 7/9/3 5/10/3 6/11/3
f 6/12/4 2/13/4 4/5/4 8/14/4
f 2/13/5 1/1/5 3/4/5 4/5/5
f 6/11/6 5/10/6 1/1/6 2/13/6
f 9/15/3 10/16/3 12/17/3 11/18/3
f 11/18/6 12/17/6 16/19/6 15/20/6
f 15/20/5 16/19/5 14/21/5 13/22/5
f 13/22/2 14/21/2 10/23/2 9/24/2
f 11/25/4 15/20/4 13/22/4 9/26/4
f 16/19/1 12/27/1 10/28/1 14/21/1
f 17/29/3 19/30/3 20/31/3 18/32/3
f 19/30/2 23/33/2 24/34/2 20/31/2
f 23/33/5 21/35/5 22/36/5 24/34/5
f 21/35/6 17/37/6 18/38/6 22/36/6
f 19/39/4 17/40/4 21/35/4 23/33/4
f 24/34/1 22/36/1 18/41/1 20/42/1
f 25/43/3 26/44/3 28/45/3 27/46/3
f 27/46/6 28/45/6 32/47/6 31/48/6
f 31/48/5 32/47/5 30/49/5 29/50/5
f 29/50/2 30/49/2 26/51/2 25/52/2
f 27/53/4 31/48/4 29/50/4 25/54/4
f 32/47/7 28/55/7 26/56/7 30/49/7
f 33/57/3 35/58/3 36/59/3 34/60/3
f 35/58/2 39/61/2 40/62/2 36/59/2
f 39/61/5 37/63/5 38/64/5 40/62/5
f 37/63/6 33/65/6 34/66/6 38/64/6
f 35/67/4 33/68/4 37/63/4 39/61/4
f 40/62/8 38/64/8 34/69/8 36/70/8
