# Blender v2.92.0 OBJ File: ''
# www.blender.org
mtllib Court.mtl
o Court
v -4.500000 9.125000 0.000001
v 4.500000 9.125000 0.000001
v -4.500000 -9.125000 0.000000
v 4.500000 -9.125000 0.000000
vn 0.0000 -0.0000 1.0000
usemtl Material.003
s off
f 3//1 4//1 1//1
f 4//1 2//1 1//1
o Boundaries
v -4.500000 9.125000 0.010000
v 4.500000 9.125000 0.010000
v -4.450000 9.075001 0.010000
v 4.450000 9.075001 0.010000
v -4.450000 3.075000 0.010000
v 4.450000 3.075000 0.010000
v -4.450000 3.025000 0.010000
v 4.450000 3.025000 0.010000
v -4.450000 0.025000 0.010000
v 4.450000 0.025000 0.010000
v -4.450000 -0.025000 0.010000
v 4.450000 -0.025000 0.010000
v -4.450000 -3.025000 0.010000
v 4.450000 -3.025000 0.010000
v -4.450000 -3.075000 0.010000
v 4.450000 -3.075000 0.010000
v -4.450000 -9.075001 0.010000
v 4.450000 -9.075001 0.010000
v -4.500000 -9.125000 0.010000
v 4.500000 -9.125000 0.010000
vn -0.0000 -0.0000 1.0000
usemtl Material.004
s off
f 23//2 15//2 5//2
f 15//2 13//2 5//2
f 13//2 11//2 5//2
f 7//2 6//2 5//2
f 9//2 7//2 5//2
f 11//2 9//2 5//2
f 8//2 10//2 6//2
f 7//2 8//2 6//2
f 10//2 12//2 6//2
f 12//2 14//2 6//2
f 14//2 24//2 6//2
f 11//2 10//2 9//2
f 11//2 12//2 10//2
f 15//2 14//2 13//2
f 15//2 16//2 14//2
f 16//2 24//2 14//2
f 23//2 17//2 15//2
f 18//2 24//2 16//2
f 19//2 18//2 17//2
f 23//2 19//2 17//2
f 20//2 24//2 18//2
f 19//2 20//2 18//2
f 23//2 21//2 19//2
f 22//2 24//2 20//2
f 23//2 22//2 21//2
f 23//2 24//2 22//2
o Surroundings
v -7.500000 12.125001 0.000001
v 7.500000 12.125001 0.000001
v -4.500000 9.125000 0.000000
v 4.500000 9.125000 0.000000
v -4.500000 -9.125000 -0.000000
v 4.500000 -9.125000 -0.000000
v -7.500000 -12.125001 -0.000001
v 7.500000 -12.125001 -0.000001
v -7.500000 12.125001 0.010001
v 7.500000 12.125001 0.010001
v -4.500000 9.125000 0.010000
v 4.500000 9.125000 0.010000
v -4.500000 -9.125000 0.010000
v 4.500000 -9.125000 0.010000
v -7.500000 -12.125001 0.009999
v 7.500000 -12.125001 0.009999
vn 0.0000 0.0000 -1.0000
vn 0.0000 1.0000 0.0000
vn -1.0000 0.0000 0.0000
vn 1.0000 0.0000 0.0000
vn 0.0000 -1.0000 0.0000
vn 0.0000 -0.0000 1.0000
usemtl Material.005
s off
f 27//3 31//3 25//3
f 28//3 27//3 25//3
f 26//3 28//3 25//3
f 33//4 34//4 25//4
f 34//4 26//4 25//4
f 31//5 33//5 25//5
f 30//3 28//3 26//3
f 32//3 30//3 26//3
f 34//6 40//6 26//6
f 40//6 32//6 26//6
f 29//3 31//3 27//3
f 28//7 35//7 27//7
f 35//6 37//6 27//6
f 37//6 29//6 27//6
f 30//5 36//5 28//5
f 36//7 35//7 28//7
f 30//3 32//3 29//3
f 32//3 31//3 29//3
f 37//4 38//4 29//4
f 38//4 30//4 29//4
f 38//5 36//5 30//5
f 39//5 33//5 31//5
f 32//7 39//7 31//7
f 40//7 39//7 32//7
f 35//8 34//8 33//8
f 37//8 35//8 33//8
f 39//8 37//8 33//8
f 35//8 36//8 34//8
f 36//8 40//8 34//8
f 38//8 40//8 36//8
f 39//8 38//8 37//8
f 39//8 40//8 38//8
