# Blender v2.92.0 OBJ File: ''
# www.blender.org
mtllib Posts2.mtl
o Post
v -0.008585 -6.050069 -0.000000
v 0.000000 -6.050800 -1.000000
v 0.000000 -6.050800 -0.000000
v 0.008585 -6.050069 -1.000000
v 0.008585 -6.050069 -0.000000
v 0.000000 -6.000000 0.000000
v -0.016924 -6.047898 -0.000000
v -0.008585 -6.050069 -1.000000
v 0.016924 -6.047898 -1.000000
v 0.016924 -6.047898 -0.000000
v -0.024775 -6.044349 -0.000000
v -0.016924 -6.047898 -1.000000
v 0.024775 -6.044349 -1.000000
v 0.024775 -6.044349 -0.000000
v -0.031914 -6.039524 -0.000000
v -0.024775 -6.044349 -1.000000
v 0.031914 -6.039524 -1.000000
v 0.031914 -6.039524 -0.000000
v -0.038134 -6.033562 -0.000000
v -0.031914 -6.039524 -1.000000
v 0.038134 -6.033562 -1.000000
v 0.038134 -6.033562 -0.000000
v -0.043258 -6.026635 -0.000000
v -0.038134 -6.033562 -1.000000
v 0.043258 -6.026635 -1.000000
v 0.043258 -6.026635 -0.000000
v -0.047137 -6.018941 -0.000000
v -0.043258 -6.026635 -1.000000
v 0.047137 -6.018941 -1.000000
v 0.047137 -6.018941 -0.000000
v -0.049660 -6.010703 -0.000000
v -0.047137 -6.018941 -1.000000
v 0.049660 -6.010702 -1.000000
v 0.049660 -6.010703 -0.000000
v -0.050754 -6.002156 -0.000000
v -0.049660 -6.010702 -1.000000
v 0.050754 -6.002156 -1.000000
v 0.050754 -6.002156 -0.000000
v -0.050389 -5.993547 0.000000
v -0.050754 -6.002156 -1.000000
v 0.050389 -5.993547 -1.000000
v 0.050389 -5.993547 0.000000
v 0.000000 -5.949200 0.000000
v -0.004308 -5.949383 0.000000
v 0.004308 -5.949383 0.000000
v 0.028447 -5.957912 0.000000
v 0.020925 -5.953710 0.000000
v 0.012800 -5.950839 0.000000
v 0.045361 -5.977130 0.000000
v 0.040843 -5.969793 0.000000
v 0.035150 -5.963325 0.000000
v 0.048573 -5.985125 0.000000
v -0.045361 -5.977130 0.000000
v -0.048573 -5.985125 0.000000
v -0.028447 -5.957912 0.000000
v -0.035150 -5.963325 0.000000
v -0.040843 -5.969793 0.000000
v -0.012800 -5.950839 0.000000
v -0.020925 -5.953710 0.000000
v -0.050389 -5.993547 -1.000000
v 0.048573 -5.985125 -1.000000
v -0.048573 -5.985125 -1.000000
v 0.045361 -5.977130 -1.000000
v -0.045361 -5.977130 -1.000000
v 0.040843 -5.969793 -1.000000
v -0.040843 -5.969793 -1.000000
v 0.035150 -5.963325 -1.000000
v -0.035150 -5.963325 -1.000000
v 0.028447 -5.957912 -1.000000
v -0.028447 -5.957912 -1.000000
v 0.020925 -5.953710 -1.000000
v -0.020925 -5.953710 -1.000000
v 0.012800 -5.950839 -1.000000
v -0.012800 -5.950839 -1.000000
v 0.004308 -5.949383 -1.000000
v 0.000000 -5.949200 -1.000000
v -0.004308 -5.949383 -1.000000
v 0.000000 -6.000000 -1.000000
vn -0.0848 -0.9964 0.0000
vn 0.0848 -0.9964 0.0000
vn 0.0000 -0.0000 1.0000
vn -0.2519 -0.9677 0.0000
vn 0.2519 -0.9677 0.0000
vn -0.4119 -0.9112 0.0000
vn 0.4119 -0.9112 0.0000
vn -0.5600 -0.8285 -0.0000
vn -0.5599 -0.8285 -0.0000
vn 0.5599 -0.8285 -0.0000
vn 0.5600 -0.8285 -0.0000
vn -0.6920 -0.7219 0.0000
vn 0.6920 -0.7219 0.0000
vn -0.8040 -0.5947 -0.0000
vn 0.8040 -0.5947 -0.0000
vn -0.8929 -0.4502 0.0000
vn 0.8929 -0.4502 0.0000
vn -0.9562 -0.2928 -0.0000
vn 0.9562 -0.2928 0.0000
vn -0.9919 -0.1270 -0.0000
vn 0.9919 -0.1270 -0.0000
vn -0.9991 0.0424 0.0000
vn 0.9991 0.0424 0.0000
vn -0.9775 0.2108 0.0000
vn 0.9775 0.2108 0.0000
vn -0.9279 0.3728 0.0000
vn 0.9279 0.3728 0.0000
vn -0.8515 0.5243 0.0000
vn 0.8515 0.5243 0.0000
vn -0.7506 0.6607 0.0000
vn 0.7506 0.6607 0.0000
vn -0.6283 0.7780 0.0000
vn 0.6283 0.7780 0.0000
vn -0.4877 0.8730 0.0000
vn 0.4877 0.8730 0.0000
vn -0.3332 0.9429 0.0000
vn 0.3332 0.9429 0.0000
vn -0.1690 0.9856 0.0000
vn 0.1690 0.9856 0.0000
vn -0.0424 0.9991 0.0000
vn -0.0425 0.9991 0.0000
vn 0.0425 0.9991 0.0000
vn 0.0424 0.9991 0.0000
vn 0.0000 0.0000 -1.0000
usemtl None
s 1
f 1//1 2//1 3//1
f 2//2 4//2 3//2
f 4//2 5//2 3//2
f 5//3 6//3 3//3
f 6//3 1//3 3//3
f 7//4 8//4 1//4
f 8//1 2//1 1//1
f 6//3 7//3 1//3
f 4//5 9//5 5//5
f 9//5 10//5 5//5
f 10//3 6//3 5//3
f 11//6 12//6 7//6
f 12//4 8//4 7//4
f 6//3 11//3 7//3
f 9//7 13//7 10//7
f 13//7 14//7 10//7
f 14//3 6//3 10//3
f 15//8 16//9 11//8
f 16//6 12//6 11//6
f 6//3 15//3 11//3
f 13//10 17//10 14//11
f 17//10 18//11 14//11
f 18//3 6//3 14//3
f 19//12 20//12 15//12
f 20//9 16//9 15//8
f 6//3 19//3 15//3
f 17//13 21//13 18//13
f 21//13 22//13 18//13
f 22//3 6//3 18//3
f 23//14 24//14 19//14
f 24//12 20//12 19//12
f 6//3 23//3 19//3
f 21//15 25//15 22//15
f 25//15 26//15 22//15
f 26//3 6//3 22//3
f 27//16 28//16 23//16
f 28//14 24//14 23//14
f 6//3 27//3 23//3
f 25//17 29//17 26//17
f 29//17 30//17 26//17
f 30//3 6//3 26//3
f 31//18 32//18 27//18
f 32//16 28//16 27//16
f 6//3 31//3 27//3
f 29//19 33//19 30//19
f 33//19 34//19 30//19
f 34//3 6//3 30//3
f 35//20 36//20 31//20
f 36//18 32//18 31//18
f 6//3 35//3 31//3
f 33//21 37//21 34//21
f 37//21 38//21 34//21
f 38//3 6//3 34//3
f 39//22 40//22 35//22
f 40//20 36//20 35//20
f 6//3 39//3 35//3
f 37//23 41//23 38//23
f 41//23 42//23 38//23
f 42//3 6//3 38//3
f 43//3 44//3 6//3
f 45//3 43//3 6//3
f 46//3 47//3 6//3
f 47//3 48//3 6//3
f 48//3 45//3 6//3
f 49//3 50//3 6//3
f 50//3 51//3 6//3
f 51//3 46//3 6//3
f 42//3 52//3 6//3
f 52//3 49//3 6//3
f 53//3 54//3 6//3
f 54//3 39//3 6//3
f 55//3 56//3 6//3
f 56//3 57//3 6//3
f 57//3 53//3 6//3
f 44//3 58//3 6//3
f 58//3 59//3 6//3
f 59//3 55//3 6//3
f 54//24 60//24 39//24
f 60//22 40//22 39//22
f 41//25 61//25 42//25
f 61//25 52//25 42//25
f 53//26 62//26 54//26
f 62//24 60//24 54//24
f 61//27 63//27 52//27
f 63//27 49//27 52//27
f 57//28 64//28 53//28
f 64//26 62//26 53//26
f 63//29 65//29 49//29
f 65//29 50//29 49//29
f 56//30 66//30 57//30
f 66//28 64//28 57//28
f 65//31 67//31 50//31
f 67//31 51//31 50//31
f 55//32 68//32 56//32
f 68//30 66//30 56//30
f 67//33 69//33 51//33
f 69//33 46//33 51//33
f 59//34 70//34 55//34
f 70//32 68//32 55//32
f 69//35 71//35 46//35
f 71//35 47//35 46//35
f 58//36 72//36 59//36
f 72//34 70//34 59//34
f 71//37 73//37 47//37
f 73//37 48//37 47//37
f 44//38 74//38 58//38
f 74//36 72//36 58//36
f 73//39 75//39 48//39
f 75//39 45//39 48//39
f 43//40 76//41 44//40
f 76//41 77//41 44//40
f 77//38 74//38 44//38
f 75//42 43//43 45//43
f 75//42 76//42 43//43
f 8//44 78//44 2//44
f 78//44 4//44 2//44
f 12//44 78//44 8//44
f 78//44 9//44 4//44
f 16//44 78//44 12//44
f 78//44 13//44 9//44
f 20//44 78//44 16//44
f 78//44 17//44 13//44
f 24//44 78//44 20//44
f 78//44 21//44 17//44
f 28//44 78//44 24//44
f 78//44 25//44 21//44
f 32//44 78//44 28//44
f 78//44 29//44 25//44
f 36//44 78//44 32//44
f 78//44 33//44 29//44
f 40//44 78//44 36//44
f 78//44 37//44 33//44
f 60//44 78//44 40//44
f 78//44 41//44 37//44
f 76//44 75//44 78//44
f 77//44 76//44 78//44
f 70//44 72//44 78//44
f 72//44 74//44 78//44
f 74//44 77//44 78//44
f 64//44 66//44 78//44
f 66//44 68//44 78//44
f 68//44 70//44 78//44
f 60//44 62//44 78//44
f 62//44 64//44 78//44
f 63//44 61//44 78//44
f 61//44 41//44 78//44
f 69//44 67//44 78//44
f 67//44 65//44 78//44
f 65//44 63//44 78//44
f 75//44 73//44 78//44
f 73//44 71//44 78//44
f 71//44 69//44 78//44
o Post.001
v -0.008585 5.949931 -0.000000
v 0.000000 5.949200 -1.000000
v 0.000000 5.949200 -0.000000
v 0.008585 5.949931 -1.000000
v 0.008585 5.949931 -0.000000
v 0.000000 6.000000 0.000000
v -0.016924 5.952102 -0.000000
v -0.008585 5.949931 -1.000000
v 0.016924 5.952102 -1.000000
v 0.016924 5.952102 -0.000000
v -0.024775 5.955651 -0.000000
v -0.016924 5.952102 -1.000000
v 0.024775 5.955651 -1.000000
v 0.024775 5.955651 -0.000000
v -0.031914 5.960476 -0.000000
v -0.024775 5.955651 -1.000000
v 0.031914 5.960476 -1.000000
v 0.031914 5.960476 -0.000000
v -0.038134 5.966438 -0.000000
v -0.031914 5.960476 -1.000000
v 0.038134 5.966438 -1.000000
v 0.038134 5.966438 -0.000000
v -0.043258 5.973365 -0.000000
v -0.038134 5.966438 -1.000000
v 0.043258 5.973365 -1.000000
v 0.043258 5.973365 -0.000000
v -0.047137 5.981059 -0.000000
v -0.043258 5.973365 -1.000000
v 0.047137 5.981059 -1.000000
v 0.047137 5.981059 -0.000000
v -0.049660 5.989297 -0.000000
v -0.047137 5.981059 -1.000000
v 0.049660 5.989298 -1.000000
v 0.049660 5.989297 -0.000000
v -0.050754 5.997844 -0.000000
v -0.049660 5.989298 -1.000000
v 0.050754 5.997844 -1.000000
v 0.050754 5.997844 -0.000000
v -0.050389 6.006453 0.000000
v -0.050754 5.997844 -1.000000
v 0.050389 6.006453 -1.000000
v 0.050389 6.006453 0.000000
v 0.000000 6.050800 0.000000
v -0.004308 6.050617 0.000000
v 0.004308 6.050617 0.000000
v 0.028447 6.042088 0.000000
v 0.020925 6.046290 0.000000
v 0.012800 6.049161 0.000000
v 0.045361 6.022870 0.000000
v 0.040843 6.030207 0.000000
v 0.035150 6.036675 0.000000
v 0.048573 6.014875 0.000000
v -0.045361 6.022870 0.000000
v -0.048573 6.014875 0.000000
v -0.028447 6.042088 0.000000
v -0.035150 6.036675 0.000000
v -0.040843 6.030207 0.000000
v -0.012800 6.049161 0.000000
v -0.020925 6.046290 0.000000
v -0.050389 6.006453 -1.000000
v 0.048573 6.014875 -1.000000
v -0.048573 6.014875 -1.000000
v 0.045361 6.022870 -1.000000
v -0.045361 6.022870 -1.000000
v 0.040843 6.030207 -1.000000
v -0.040843 6.030207 -1.000000
v 0.035150 6.036675 -1.000000
v -0.035150 6.036675 -1.000000
v 0.028447 6.042088 -1.000000
v -0.028447 6.042088 -1.000000
v 0.020925 6.046290 -1.000000
v -0.020925 6.046290 -1.000000
v 0.012800 6.049161 -1.000000
v -0.012800 6.049161 -1.000000
v 0.004308 6.050617 -1.000000
v 0.000000 6.050800 -1.000000
v -0.004308 6.050617 -1.000000
v 0.000000 6.000000 -1.000000
vn -0.0848 -0.9964 0.0000
vn 0.0848 -0.9964 0.0000
vn 0.0000 -0.0000 1.0000
vn -0.2519 -0.9677 0.0000
vn 0.2519 -0.9677 0.0000
vn -0.4119 -0.9112 0.0000
vn 0.4119 -0.9112 0.0000
vn -0.5600 -0.8285 -0.0000
vn -0.5599 -0.8285 -0.0000
vn 0.5599 -0.8285 -0.0000
vn 0.5600 -0.8285 -0.0000
vn -0.6920 -0.7219 0.0000
vn 0.6920 -0.7219 0.0000
vn -0.8040 -0.5947 -0.0000
vn 0.8040 -0.5947 -0.0000
vn -0.8929 -0.4502 0.0000
vn 0.8929 -0.4502 0.0000
vn -0.9562 -0.2928 -0.0000
vn 0.9562 -0.2928 0.0000
vn -0.9919 -0.1270 -0.0000
vn 0.9919 -0.1270 -0.0000
vn -0.9991 0.0424 0.0000
vn 0.9991 0.0424 0.0000
vn -0.9775 0.2108 0.0000
vn 0.9775 0.2108 0.0000
vn -0.9279 0.3728 0.0000
vn 0.9279 0.3728 0.0000
vn -0.8515 0.5243 0.0000
vn 0.8515 0.5243 0.0000
vn -0.7506 0.6607 0.0000
vn 0.7506 0.6607 0.0000
vn -0.6283 0.7780 0.0000
vn 0.6283 0.7780 0.0000
vn -0.4877 0.8730 0.0000
vn 0.4877 0.8730 0.0000
vn -0.3332 0.9429 0.0000
vn 0.3332 0.9429 0.0000
vn -0.1690 0.9856 0.0000
vn 0.1690 0.9856 0.0000
vn -0.0424 0.9991 0.0000
vn -0.0425 0.9991 0.0000
vn 0.0425 0.9991 0.0000
vn 0.0424 0.9991 0.0000
vn 0.0000 0.0000 -1.0000
usemtl None.001
s 1
f 79//45 80//45 81//45
f 80//46 82//46 81//46
f 82//46 83//46 81//46
f 83//47 84//47 81//47
f 84//47 79//47 81//47
f 85//48 86//48 79//48
f 86//45 80//45 79//45
f 84//47 85//47 79//47
f 82//49 87//49 83//49
f 87//49 88//49 83//49
f 88//47 84//47 83//47
f 89//50 90//50 85//50
f 90//48 86//48 85//48
f 84//47 89//47 85//47
f 87//51 91//51 88//51
f 91//51 92//51 88//51
f 92//47 84//47 88//47
f 93//52 94//53 89//52
f 94//50 90//50 89//50
f 84//47 93//47 89//47
f 91//54 95//54 92//55
f 95//54 96//55 92//55
f 96//47 84//47 92//47
f 97//56 98//56 93//56
f 98//53 94//53 93//52
f 84//47 97//47 93//47
f 95//57 99//57 96//57
f 99//57 100//57 96//57
f 100//47 84//47 96//47
f 101//58 102//58 97//58
f 102//56 98//56 97//56
f 84//47 101//47 97//47
f 99//59 103//59 100//59
f 103//59 104//59 100//59
f 104//47 84//47 100//47
f 105//60 106//60 101//60
f 106//58 102//58 101//58
f 84//47 105//47 101//47
f 103//61 107//61 104//61
f 107//61 108//61 104//61
f 108//47 84//47 104//47
f 109//62 110//62 105//62
f 110//60 106//60 105//60
f 84//47 109//47 105//47
f 107//63 111//63 108//63
f 111//63 112//63 108//63
f 112//47 84//47 108//47
f 113//64 114//64 109//64
f 114//62 110//62 109//62
f 84//47 113//47 109//47
f 111//65 115//65 112//65
f 115//65 116//65 112//65
f 116//47 84//47 112//47
f 117//66 118//66 113//66
f 118//64 114//64 113//64
f 84//47 117//47 113//47
f 115//67 119//67 116//67
f 119//67 120//67 116//67
f 120//47 84//47 116//47
f 121//47 122//47 84//47
f 123//47 121//47 84//47
f 124//47 125//47 84//47
f 125//47 126//47 84//47
f 126//47 123//47 84//47
f 127//47 128//47 84//47
f 128//47 129//47 84//47
f 129//47 124//47 84//47
f 120//47 130//47 84//47
f 130//47 127//47 84//47
f 131//47 132//47 84//47
f 132//47 117//47 84//47
f 133//47 134//47 84//47
f 134//47 135//47 84//47
f 135//47 131//47 84//47
f 122//47 136//47 84//47
f 136//47 137//47 84//47
f 137//47 133//47 84//47
f 132//68 138//68 117//68
f 138//66 118//66 117//66
f 119//69 139//69 120//69
f 139//69 130//69 120//69
f 131//70 140//70 132//70
f 140//68 138//68 132//68
f 139//71 141//71 130//71
f 141//71 127//71 130//71
f 135//72 142//72 131//72
f 142//70 140//70 131//70
f 141//73 143//73 127//73
f 143//73 128//73 127//73
f 134//74 144//74 135//74
f 144//72 142//72 135//72
f 143//75 145//75 128//75
f 145//75 129//75 128//75
f 133//76 146//76 134//76
f 146//74 144//74 134//74
f 145//77 147//77 129//77
f 147//77 124//77 129//77
f 137//78 148//78 133//78
f 148//76 146//76 133//76
f 147//79 149//79 124//79
f 149//79 125//79 124//79
f 136//80 150//80 137//80
f 150//78 148//78 137//78
f 149//81 151//81 125//81
f 151//81 126//81 125//81
f 122//82 152//82 136//82
f 152//80 150//80 136//80
f 151//83 153//83 126//83
f 153//83 123//83 126//83
f 121//84 154//85 122//84
f 154//85 155//85 122//84
f 155//82 152//82 122//82
f 153//86 121//87 123//87
f 153//86 154//86 121//87
f 86//88 156//88 80//88
f 156//88 82//88 80//88
f 90//88 156//88 86//88
f 156//88 87//88 82//88
f 94//88 156//88 90//88
f 156//88 91//88 87//88
f 98//88 156//88 94//88
f 156//88 95//88 91//88
f 102//88 156//88 98//88
f 156//88 99//88 95//88
f 106//88 156//88 102//88
f 156//88 103//88 99//88
f 110//88 156//88 106//88
f 156//88 107//88 103//88
f 114//88 156//88 110//88
f 156//88 111//88 107//88
f 118//88 156//88 114//88
f 156//88 115//88 111//88
f 138//88 156//88 118//88
f 156//88 119//88 115//88
f 154//88 153//88 156//88
f 155//88 154//88 156//88
f 148//88 150//88 156//88
f 150//88 152//88 156//88
f 152//88 155//88 156//88
f 142//88 144//88 156//88
f 144//88 146//88 156//88
f 146//88 148//88 156//88
f 138//88 140//88 156//88
f 140//88 142//88 156//88
f 141//88 139//88 156//88
f 139//88 119//88 156//88
f 147//88 145//88 156//88
f 145//88 143//88 156//88
f 143//88 141//88 156//88
f 153//88 151//88 156//88
f 151//88 149//88 156//88
f 149//88 147//88 156//88
