# Blender v2.92.0 OBJ File: ''
# www.blender.org
mtllib Posts.mtl
o Post
v -0.008585 -5.949931 -1.000000
v 0.000000 -5.949200 0.000000
v 0.000000 -5.949200 -1.000000
v 0.008585 -5.949931 0.000000
v 0.008585 -5.949931 -1.000000
v 0.000000 -6.000000 -1.000000
v -0.016924 -5.952102 -1.000000
v -0.008585 -5.949931 0.000000
v 0.016924 -5.952102 0.000000
v 0.016924 -5.952102 -1.000000
v -0.024775 -5.955651 -1.000000
v -0.016924 -5.952102 0.000000
v 0.024775 -5.955651 0.000000
v 0.024775 -5.955651 -1.000000
v -0.031914 -5.960476 -1.000000
v -0.024775 -5.955651 0.000000
v 0.031914 -5.960476 0.000000
v 0.031914 -5.960476 -1.000000
v -0.038134 -5.966438 -1.000000
v -0.031914 -5.960476 0.000000
v 0.038134 -5.966438 0.000000
v 0.038134 -5.966438 -1.000000
v -0.043258 -5.973365 -1.000000
v -0.038134 -5.966438 0.000000
v 0.043258 -5.973365 0.000000
v 0.043258 -5.973365 -1.000000
v -0.047137 -5.981059 -1.000000
v -0.043258 -5.973365 0.000000
v 0.047137 -5.981059 0.000000
v 0.047137 -5.981059 -1.000000
v -0.049660 -5.989297 -1.000000
v -0.047137 -5.981059 0.000000
v 0.049660 -5.989298 0.000000
v 0.049660 -5.989297 -1.000000
v -0.050754 -5.997844 -1.000000
v -0.049660 -5.989298 0.000000
v 0.050754 -5.997844 0.000000
v 0.050754 -5.997844 -1.000000
v -0.050389 -6.006453 -1.000000
v -0.050754 -5.997844 0.000000
v 0.050389 -6.006453 0.000000
v 0.050389 -6.006453 -1.000000
v 0.000000 -6.050800 -1.000000
v -0.004308 -6.050617 -1.000000
v 0.004308 -6.050617 -1.000000
v 0.028447 -6.042088 -1.000000
v 0.020925 -6.046290 -1.000000
v 0.012800 -6.049161 -1.000000
v 0.045361 -6.022870 -1.000000
v 0.040843 -6.030207 -1.000000
v 0.035150 -6.036675 -1.000000
v 0.048573 -6.014875 -1.000000
v -0.045361 -6.022870 -1.000000
v -0.048573 -6.014875 -1.000000
v -0.028447 -6.042088 -1.000000
v -0.035150 -6.036675 -1.000000
v -0.040843 -6.030207 -1.000000
v -0.012800 -6.049161 -1.000000
v -0.020925 -6.046290 -1.000000
v -0.050389 -6.006453 0.000000
v 0.048573 -6.014875 0.000000
v -0.048573 -6.014875 0.000000
v 0.045361 -6.022870 0.000000
v -0.045361 -6.022870 0.000000
v 0.040843 -6.030207 0.000000
v -0.040843 -6.030207 0.000000
v 0.035150 -6.036675 0.000000
v -0.035150 -6.036675 0.000000
v 0.028447 -6.042088 0.000000
v -0.028447 -6.042088 0.000000
v 0.020925 -6.046290 0.000000
v -0.020925 -6.046290 0.000000
v 0.012800 -6.049161 0.000000
v -0.012800 -6.049161 0.000000
v 0.004308 -6.050617 0.000000
v 0.000000 -6.050800 0.000000
v -0.004308 -6.050617 0.000000
v 0.000000 -6.000000 0.000000
vn -0.0848 0.9964 0.0000
vn 0.0848 0.9964 0.0000
vn 0.0000 0.0000 -1.0000
vn -0.2519 0.9677 0.0000
vn 0.2519 0.9677 0.0000
vn -0.4119 0.9112 0.0000
vn 0.4119 0.9112 0.0000
vn -0.5600 0.8285 0.0000
vn 0.5600 0.8285 0.0000
vn -0.6920 0.7219 0.0000
vn 0.6920 0.7219 0.0000
vn -0.8040 0.5947 0.0000
vn 0.8040 0.5947 0.0000
vn -0.8929 0.4502 0.0000
vn 0.8929 0.4502 0.0000
vn -0.9562 0.2928 0.0000
vn 0.9562 0.2928 0.0000
vn -0.9919 0.1270 0.0000
vn 0.9919 0.1270 0.0000
vn -0.9991 -0.0424 0.0000
vn 0.9991 -0.0424 0.0000
vn -0.9775 -0.2108 0.0000
vn 0.9775 -0.2108 0.0000
vn -0.9279 -0.3728 0.0000
vn 0.9279 -0.3728 0.0000
vn -0.8515 -0.5243 0.0000
vn 0.8515 -0.5243 0.0000
vn -0.7506 -0.6607 0.0000
vn 0.7506 -0.6607 0.0000
vn -0.6283 -0.7780 0.0000
vn 0.6283 -0.7780 0.0000
vn -0.4877 -0.8730 0.0000
vn 0.4877 -0.8730 0.0000
vn -0.3332 -0.9429 0.0000
vn 0.3332 -0.9429 0.0000
vn -0.1690 -0.9856 0.0000
vn 0.1690 -0.9856 0.0000
vn -0.0424 -0.9991 0.0000
vn 0.0424 -0.9991 0.0000
vn 0.0000 0.0000 1.0000
usemtl Post
s 1
f 1//1 2//1 3//1
f 2//2 4//2 3//2
f 4//2 5//2 3//2
f 5//3 6//3 3//3
f 6//3 1//3 3//3
f 7//4 8//4 1//4
f 8//1 2//1 1//1
f 6//3 7//3 1//3
f 4//5 9//5 5//5
f 9//5 10//5 5//5
f 10//3 6//3 5//3
f 11//6 12//6 7//6
f 12//4 8//4 7//4
f 6//3 11//3 7//3
f 9//7 13//7 10//7
f 13//7 14//7 10//7
f 14//3 6//3 10//3
f 15//8 16//8 11//8
f 16//6 12//6 11//6
f 6//3 15//3 11//3
f 13//9 17//9 14//9
f 17//9 18//9 14//9
f 18//3 6//3 14//3
f 19//10 20//10 15//10
f 20//8 16//8 15//8
f 6//3 19//3 15//3
f 17//11 21//11 18//11
f 21//11 22//11 18//11
f 22//3 6//3 18//3
f 23//12 24//12 19//12
f 24//10 20//10 19//10
f 6//3 23//3 19//3
f 21//13 25//13 22//13
f 25//13 26//13 22//13
f 26//3 6//3 22//3
f 27//14 28//14 23//14
f 28//12 24//12 23//12
f 6//3 27//3 23//3
f 25//15 29//15 26//15
f 29//15 30//15 26//15
f 30//3 6//3 26//3
f 31//16 32//16 27//16
f 32//14 28//14 27//14
f 6//3 31//3 27//3
f 29//17 33//17 30//17
f 33//17 34//17 30//17
f 34//3 6//3 30//3
f 35//18 36//18 31//18
f 36//16 32//16 31//16
f 6//3 35//3 31//3
f 33//19 37//19 34//19
f 37//19 38//19 34//19
f 38//3 6//3 34//3
f 39//20 40//20 35//20
f 40//18 36//18 35//18
f 6//3 39//3 35//3
f 37//21 41//21 38//21
f 41//21 42//21 38//21
f 42//3 6//3 38//3
f 43//3 44//3 6//3
f 45//3 43//3 6//3
f 46//3 47//3 6//3
f 47//3 48//3 6//3
f 48//3 45//3 6//3
f 49//3 50//3 6//3
f 50//3 51//3 6//3
f 51//3 46//3 6//3
f 42//3 52//3 6//3
f 52//3 49//3 6//3
f 53//3 54//3 6//3
f 54//3 39//3 6//3
f 55//3 56//3 6//3
f 56//3 57//3 6//3
f 57//3 53//3 6//3
f 44//3 58//3 6//3
f 58//3 59//3 6//3
f 59//3 55//3 6//3
f 54//22 60//22 39//22
f 60//20 40//20 39//20
f 41//23 61//23 42//23
f 61//23 52//23 42//23
f 53//24 62//24 54//24
f 62//22 60//22 54//22
f 61//25 63//25 52//25
f 63//25 49//25 52//25
f 57//26 64//26 53//26
f 64//24 62//24 53//24
f 63//27 65//27 49//27
f 65//27 50//27 49//27
f 56//28 66//28 57//28
f 66//26 64//26 57//26
f 65//29 67//29 50//29
f 67//29 51//29 50//29
f 55//30 68//30 56//30
f 68//28 66//28 56//28
f 67//31 69//31 51//31
f 69//31 46//31 51//31
f 59//32 70//32 55//32
f 70//30 68//30 55//30
f 69//33 71//33 46//33
f 71//33 47//33 46//33
f 58//34 72//34 59//34
f 72//32 70//32 59//32
f 71//35 73//35 47//35
f 73//35 48//35 47//35
f 44//36 74//36 58//36
f 74//34 72//34 58//34
f 73//37 75//37 48//37
f 75//37 45//37 48//37
f 43//38 76//38 44//38
f 76//38 77//38 44//38
f 77//36 74//36 44//36
f 75//39 43//39 45//39
f 75//39 76//39 43//39
f 8//40 78//40 2//40
f 78//40 4//40 2//40
f 12//40 78//40 8//40
f 78//40 9//40 4//40
f 16//40 78//40 12//40
f 78//40 13//40 9//40
f 20//40 78//40 16//40
f 78//40 17//40 13//40
f 24//40 78//40 20//40
f 78//40 21//40 17//40
f 28//40 78//40 24//40
f 78//40 25//40 21//40
f 32//40 78//40 28//40
f 78//40 29//40 25//40
f 36//40 78//40 32//40
f 78//40 33//40 29//40
f 40//40 78//40 36//40
f 78//40 37//40 33//40
f 60//40 78//40 40//40
f 78//40 41//40 37//40
f 76//40 75//40 78//40
f 77//40 76//40 78//40
f 70//40 72//40 78//40
f 72//40 74//40 78//40
f 74//40 77//40 78//40
f 64//40 66//40 78//40
f 66//40 68//40 78//40
f 68//40 70//40 78//40
f 60//40 62//40 78//40
f 62//40 64//40 78//40
f 63//40 61//40 78//40
f 61//40 41//40 78//40
f 69//40 67//40 78//40
f 67//40 65//40 78//40
f 65//40 63//40 78//40
f 75//40 73//40 78//40
f 73//40 71//40 78//40
f 71//40 69//40 78//40
o Post.001
v -0.008585 6.050069 -1.000000
v 0.000000 6.050800 0.000000
v 0.000000 6.050800 -1.000000
v 0.008585 6.050069 0.000000
v 0.008585 6.050069 -1.000000
v 0.000000 6.000000 -1.000000
v -0.016924 6.047898 -1.000000
v -0.008585 6.050069 0.000000
v 0.016924 6.047898 0.000000
v 0.016924 6.047898 -1.000000
v -0.024775 6.044349 -1.000000
v -0.016924 6.047898 0.000000
v 0.024775 6.044349 0.000000
v 0.024775 6.044349 -1.000000
v -0.031914 6.039524 -1.000000
v -0.024775 6.044349 0.000000
v 0.031914 6.039524 0.000000
v 0.031914 6.039524 -1.000000
v -0.038134 6.033562 -1.000000
v -0.031914 6.039524 0.000000
v 0.038134 6.033562 0.000000
v 0.038134 6.033562 -1.000000
v -0.043258 6.026635 -1.000000
v -0.038134 6.033562 0.000000
v 0.043258 6.026635 0.000000
v 0.043258 6.026635 -1.000000
v -0.047137 6.018941 -1.000000
v -0.043258 6.026635 0.000000
v 0.047137 6.018941 0.000000
v 0.047137 6.018941 -1.000000
v -0.049660 6.010703 -1.000000
v -0.047137 6.018941 0.000000
v 0.049660 6.010702 0.000000
v 0.049660 6.010703 -1.000000
v -0.050754 6.002156 -1.000000
v -0.049660 6.010702 0.000000
v 0.050754 6.002156 0.000000
v 0.050754 6.002156 -1.000000
v -0.050389 5.993547 -1.000000
v -0.050754 6.002156 0.000000
v 0.050389 5.993547 0.000000
v 0.050389 5.993547 -1.000000
v 0.000000 5.949200 -1.000000
v -0.004308 5.949383 -1.000000
v 0.004308 5.949383 -1.000000
v 0.028447 5.957912 -1.000000
v 0.020925 5.953710 -1.000000
v 0.012800 5.950839 -1.000000
v 0.045361 5.977130 -1.000000
v 0.040843 5.969793 -1.000000
v 0.035150 5.963325 -1.000000
v 0.048573 5.985125 -1.000000
v -0.045361 5.977130 -1.000000
v -0.048573 5.985125 -1.000000
v -0.028447 5.957912 -1.000000
v -0.035150 5.963325 -1.000000
v -0.040843 5.969793 -1.000000
v -0.012800 5.950839 -1.000000
v -0.020925 5.953710 -1.000000
v -0.050389 5.993547 0.000000
v 0.048573 5.985125 0.000000
v -0.048573 5.985125 0.000000
v 0.045361 5.977130 0.000000
v -0.045361 5.977130 0.000000
v 0.040843 5.969793 0.000000
v -0.040843 5.969793 0.000000
v 0.035150 5.963325 0.000000
v -0.035150 5.963325 0.000000
v 0.028447 5.957912 0.000000
v -0.028447 5.957912 0.000000
v 0.020925 5.953710 0.000000
v -0.020925 5.953710 0.000000
v 0.012800 5.950839 0.000000
v -0.012800 5.950839 0.000000
v 0.004308 5.949383 0.000000
v 0.000000 5.949200 0.000000
v -0.004308 5.949383 0.000000
v 0.000000 6.000000 0.000000
vn -0.0848 0.9964 0.0000
vn 0.0848 0.9964 0.0000
vn 0.0000 0.0000 -1.0000
vn -0.2519 0.9677 0.0000
vn 0.2519 0.9677 0.0000
vn -0.4119 0.9112 0.0000
vn 0.4119 0.9112 0.0000
vn -0.5600 0.8285 0.0000
vn 0.5600 0.8285 0.0000
vn -0.6920 0.7219 0.0000
vn 0.6920 0.7219 0.0000
vn -0.8040 0.5947 0.0000
vn 0.8040 0.5947 0.0000
vn -0.8929 0.4502 0.0000
vn 0.8929 0.4502 0.0000
vn -0.9562 0.2928 0.0000
vn 0.9562 0.2928 0.0000
vn -0.9919 0.1270 0.0000
vn 0.9919 0.1270 0.0000
vn -0.9991 -0.0424 0.0000
vn 0.9991 -0.0424 0.0000
vn -0.9775 -0.2108 0.0000
vn 0.9775 -0.2108 0.0000
vn -0.9279 -0.3728 0.0000
vn 0.9279 -0.3728 0.0000
vn -0.8515 -0.5243 0.0000
vn 0.8515 -0.5243 0.0000
vn -0.7506 -0.6607 0.0000
vn 0.7506 -0.6607 0.0000
vn -0.6283 -0.7780 0.0000
vn 0.6283 -0.7780 0.0000
vn -0.4877 -0.8730 0.0000
vn 0.4877 -0.8730 0.0000
vn -0.3332 -0.9429 0.0000
vn 0.3332 -0.9429 0.0000
vn -0.1690 -0.9856 0.0000
vn 0.1690 -0.9856 0.0000
vn -0.0424 -0.9991 0.0000
vn 0.0424 -0.9991 0.0000
vn 0.0000 0.0000 1.0000
usemtl Post
s 1
f 79//41 80//41 81//41
f 80//42 82//42 81//42
f 82//42 83//42 81//42
f 83//43 84//43 81//43
f 84//43 79//43 81//43
f 85//44 86//44 79//44
f 86//41 80//41 79//41
f 84//43 85//43 79//43
f 82//45 87//45 83//45
f 87//45 88//45 83//45
f 88//43 84//43 83//43
f 89//46 90//46 85//46
f 90//44 86//44 85//44
f 84//43 89//43 85//43
f 87//47 91//47 88//47
f 91//47 92//47 88//47
f 92//43 84//43 88//43
f 93//48 94//48 89//48
f 94//46 90//46 89//46
f 84//43 93//43 89//43
f 91//49 95//49 92//49
f 95//49 96//49 92//49
f 96//43 84//43 92//43
f 97//50 98//50 93//50
f 98//48 94//48 93//48
f 84//43 97//43 93//43
f 95//51 99//51 96//51
f 99//51 100//51 96//51
f 100//43 84//43 96//43
f 101//52 102//52 97//52
f 102//50 98//50 97//50
f 84//43 101//43 97//43
f 99//53 103//53 100//53
f 103//53 104//53 100//53
f 104//43 84//43 100//43
f 105//54 106//54 101//54
f 106//52 102//52 101//52
f 84//43 105//43 101//43
f 103//55 107//55 104//55
f 107//55 108//55 104//55
f 108//43 84//43 104//43
f 109//56 110//56 105//56
f 110//54 106//54 105//54
f 84//43 109//43 105//43
f 107//57 111//57 108//57
f 111//57 112//57 108//57
f 112//43 84//43 108//43
f 113//58 114//58 109//58
f 114//56 110//56 109//56
f 84//43 113//43 109//43
f 111//59 115//59 112//59
f 115//59 116//59 112//59
f 116//43 84//43 112//43
f 117//60 118//60 113//60
f 118//58 114//58 113//58
f 84//43 117//43 113//43
f 115//61 119//61 116//61
f 119//61 120//61 116//61
f 120//43 84//43 116//43
f 121//43 122//43 84//43
f 123//43 121//43 84//43
f 124//43 125//43 84//43
f 125//43 126//43 84//43
f 126//43 123//43 84//43
f 127//43 128//43 84//43
f 128//43 129//43 84//43
f 129//43 124//43 84//43
f 120//43 130//43 84//43
f 130//43 127//43 84//43
f 131//43 132//43 84//43
f 132//43 117//43 84//43
f 133//43 134//43 84//43
f 134//43 135//43 84//43
f 135//43 131//43 84//43
f 122//43 136//43 84//43
f 136//43 137//43 84//43
f 137//43 133//43 84//43
f 132//62 138//62 117//62
f 138//60 118//60 117//60
f 119//63 139//63 120//63
f 139//63 130//63 120//63
f 131//64 140//64 132//64
f 140//62 138//62 132//62
f 139//65 141//65 130//65
f 141//65 127//65 130//65
f 135//66 142//66 131//66
f 142//64 140//64 131//64
f 141//67 143//67 127//67
f 143//67 128//67 127//67
f 134//68 144//68 135//68
f 144//66 142//66 135//66
f 143//69 145//69 128//69
f 145//69 129//69 128//69
f 133//70 146//70 134//70
f 146//68 144//68 134//68
f 145//71 147//71 129//71
f 147//71 124//71 129//71
f 137//72 148//72 133//72
f 148//70 146//70 133//70
f 147//73 149//73 124//73
f 149//73 125//73 124//73
f 136//74 150//74 137//74
f 150//72 148//72 137//72
f 149//75 151//75 125//75
f 151//75 126//75 125//75
f 122//76 152//76 136//76
f 152//74 150//74 136//74
f 151//77 153//77 126//77
f 153//77 123//77 126//77
f 121//78 154//78 122//78
f 154//78 155//78 122//78
f 155//76 152//76 122//76
f 153//79 121//79 123//79
f 153//79 154//79 121//79
f 86//80 156//80 80//80
f 156//80 82//80 80//80
f 90//80 156//80 86//80
f 156//80 87//80 82//80
f 94//80 156//80 90//80
f 156//80 91//80 87//80
f 98//80 156//80 94//80
f 156//80 95//80 91//80
f 102//80 156//80 98//80
f 156//80 99//80 95//80
f 106//80 156//80 102//80
f 156//80 103//80 99//80
f 110//80 156//80 106//80
f 156//80 107//80 103//80
f 114//80 156//80 110//80
f 156//80 111//80 107//80
f 118//80 156//80 114//80
f 156//80 115//80 111//80
f 138//80 156//80 118//80
f 156//80 119//80 115//80
f 154//80 153//80 156//80
f 155//80 154//80 156//80
f 148//80 150//80 156//80
f 150//80 152//80 156//80
f 152//80 155//80 156//80
f 142//80 144//80 156//80
f 144//80 146//80 156//80
f 146//80 148//80 156//80
f 138//80 140//80 156//80
f 140//80 142//80 156//80
f 141//80 139//80 156//80
f 139//80 119//80 156//80
f 147//80 145//80 156//80
f 145//80 143//80 156//80
f 143//80 141//80 156//80
f 153//80 151//80 156//80
f 151//80 149//80 156//80
f 149//80 147//80 156//80
